<svg xmlns="http://www.w3.org/2000/svg" viewBox="0 0 256 256">
  <defs>
    <linearGradient id="bg" x1="0" y1="0" x2="1" y2="1">
      <stop offset="0%" stop-color="#0a0f2c"/>
      <stop offset="100%" stop-color="#111827"/>
    </linearGradient>
    <linearGradient id="star" x1="0" y1="0" x2="1" y2="1">
      <stop offset="0%" stop-color="#e0e7ff"/>
      <stop offset="100%" stop-color="#fcd34d"/>
    </linearGradient>
  </defs>
  <rect width="256" height="256" rx="44" fill="url(#bg)"/>
  <g stroke="#93c5fd" stroke-opacity=".7" stroke-width="2">
    <line x1="68" y1="76" x2="108" y2="112"/>
    <line x1="108" y1="112" x2="152" y2="100"/>
    <line x1="152" y1="100" x2="188" y2="132"/>
    <line x1="108" y1="112" x2="124" y2="158"/>
    <line x1="124" y1="158" x2="178" y2="170"/>
  </g>
  <g fill="url(#star)">
    <circle cx="68" cy="76" r="5"/>
    <circle cx="108" cy="112" r="6"/>
    <circle cx="152" cy="100" r="5"/>
    <circle cx="188" cy="132" r="5"/>
    <circle cx="124" cy="158" r="5"/>
    <circle cx="178" cy="170" r="5"/>
  </g>
  <path d="M52 198l10-4 4-10 4 10 10 4-10 4-4 10-4-10z" fill="#fde68a"/>
</svg>
