<svg xmlns="http://www.w3.org/2000/svg" viewBox="0 0 256 256">
  <defs>
    <linearGradient id="bg" x1="0" y1="0" x2="1" y2="1">
      <stop offset="0%" stop-color="#111827"/>
      <stop offset="100%" stop-color="#0b1024"/>
    </linearGradient>
    <linearGradient id="gold" x1="0" y1="0" x2="1" y2="1">
      <stop offset="0%" stop-color="#fde68a"/>
      <stop offset="100%" stop-color="#f59e0b"/>
    </linearGradient>
  </defs>
  <rect width="256" height="256" rx="44" fill="url(#bg)"/>
  <circle cx="128" cy="128" r="72" fill="none" stroke="url(#gold)" stroke-width="10"/>
  <circle cx="128" cy="128" r="50" fill="none" stroke="#fcd34d" stroke-opacity=".45" stroke-width="2"/>
  <g stroke="#fcd34d" stroke-width="3" stroke-linecap="round">
    <line x1="128" y1="44" x2="128" y2="58"/>
    <line x1="128" y1="198" x2="128" y2="212"/>
    <line x1="44" y1="128" x2="58" y2="128"/>
    <line x1="198" y1="128" x2="212" y2="128"/>
    <line x1="70" y1="70" x2="80" y2="80"/>
    <line x1="176" y1="176" x2="186" y2="186"/>
    <line x1="70" y1="186" x2="80" y2="176"/>
    <line x1="176" y1="80" x2="186" y2="70"/>
  </g>
  <path d="M94 145c8-18 18-28 34-30 14-2 26 4 36 16" fill="none" stroke="url(#gold)" stroke-width="9" stroke-linecap="round"/>
  <circle cx="108" cy="118" r="4" fill="#fde68a"/>
  <circle cx="148" cy="118" r="4" fill="#fde68a"/>
</svg>
